<svg width="512" height="483" viewBox="0 0 512 483" fill="none" xmlns="http://www.w3.org/2000/svg">
<rect x="231.603" y="120.749" width="57.9392" height="223.257" rx="28.9696" fill="#0038FF"/>
<rect x="231.603" width="57.9392" height="104.245" rx="28.9696" fill="#0038FF"/>
<rect x="231.603" y="360.512" width="57.9392" height="122.487" rx="28.9696" fill="#0038FF"/>
<rect x="116.275" y="312.963" width="58.1376" height="125.806" rx="29.0688" fill="#6100FF"/>
<rect x="116.945" y="55.2235" width="55.8596" height="91.4029" rx="27.9298" transform="rotate(-0.298686 116.945 55.2235)" fill="#6100FF"/>
<rect x="118.181" y="173.814" width="58.1376" height="111.51" rx="29.0688" fill="#6100FF"/>
<rect y="104.239" width="58.1376" height="114.369" rx="29.0688" fill="#0075FF"/>
<rect x="0.952393" y="231.951" width="57.9392" height="78.1834" rx="28.9696" fill="#0075FF"/>
<path d="M5.71729 358.134C5.71729 342.134 18.6874 329.164 34.6869 329.164C50.6864 329.164 63.6565 342.134 63.6565 358.134V392.277C63.6565 408.277 50.6864 421.247 34.6869 421.247C18.6874 421.247 5.71729 408.277 5.71729 392.277V358.134Z" fill="#0075FF"/>
<rect x="342.153" y="312.963" width="57.9392" height="125.962" rx="28.9696" fill="#0094FF"/>
<rect x="342.153" y="54.6799" width="58.1376" height="99.1199" rx="29.0688" fill="#0094FF"/>
<rect x="343.107" y="178.579" width="58.1376" height="111.51" rx="29.0688" fill="#0094FF"/>
<rect x="453.863" y="164.185" width="57.9392" height="125.962" rx="28.9696" fill="#AD00FF"/>
<rect x="453.863" y="96.426" width="57.9392" height="59.0719" rx="28.9696" fill="#AD00FF"/>
<rect x="453.863" y="298.834" width="57.9392" height="69.4964" rx="28.9696" fill="#AD00FF"/>
</svg>
